<svg width="128" height="129" viewBox="0 0 128 129" fill="none" xmlns="http://www.w3.org/2000/svg">
<circle cx="64.0001" cy="64.5001" r="58.1818" fill="url(#paint0_linear_1466_243)"/>
<path d="M92.8797 102.855L28.8895 94.6086C24.1815 94.0019 21.5516 88.856 23.8177 84.6849L55.777 25.8596C56.3772 24.7548 57.2052 23.9113 58.1542 23.3263C58.1855 23.307 58.2169 23.288 58.2484 23.2693C59.0256 22.808 59.8802 22.5172 60.755 22.3954C63.4934 22.014 66.4298 23.2886 67.8074 26.1733L99.8383 93.2454C100.998 95.6749 100.573 98.2654 99.1884 100.153C98.6479 100.889 97.9613 101.519 97.1657 101.99C95.9479 102.711 94.4748 103.061 92.8797 102.855Z" fill="url(#paint1_linear_1466_243)"/>
<path d="M97.3696 101.864L101.529 99.368C101.643 99.3039 101.755 99.2367 101.865 99.1664C104.566 97.4358 105.911 93.8423 104.336 90.5454L72.3054 23.4733C70.488 19.6678 65.9579 18.6644 62.7481 20.5684C62.7286 20.58 62.7091 20.5917 62.6896 20.6035L58.2489 23.2687C59.026 22.8074 59.8806 22.5167 60.7554 22.3949C63.4939 22.0135 66.4303 23.2881 67.8079 26.1728L99.8388 93.2449C100.999 95.6744 100.574 98.2649 99.1889 100.152C98.695 100.825 98.0791 101.409 97.3696 101.864Z" fill="url(#paint2_linear_1466_243)"/>
<path d="M61.0751 89.002C61.4315 88.7741 61.7349 88.472 61.9656 88.1124C62.2774 87.6263 62.4564 87.035 62.454 86.3789L62.4457 81.1958L64.6958 79.8431L64.7041 85.0263C64.7083 86.1716 64.1596 87.1198 63.3166 87.6548C63.2763 87.6804 63.2353 87.7051 63.1936 87.7288L61.0751 89.002Z" fill="url(#paint3_linear_1466_243)"/>
<path d="M62.4457 81.1928L57.2784 80.5967C57.035 80.5682 56.7971 80.5659 56.5674 80.5877C56.1065 80.6314 55.6783 80.772 55.3038 80.9919L55.2511 81.0235C55.2685 81.0128 55.2861 81.0022 55.3038 80.9919L57.5012 79.6709C58.0721 79.3196 58.7739 79.1555 59.5285 79.2441L64.6958 79.8401L62.4457 81.1928Z" fill="url(#paint4_linear_1466_243)"/>
<path d="M57.3013 48.9246L62.4687 49.5206L64.7188 48.168L59.5514 47.572C58.8956 47.5057 58.2842 47.6581 57.763 47.9801L55.5739 49.2961C55.9437 49.0798 56.3569 48.9477 56.7978 48.9165C56.9621 48.9049 57.1302 48.9073 57.3013 48.9246Z" fill="url(#paint5_linear_1466_243)"/>
<path d="M64.7184 48.1682L64.7219 75.5228L62.4718 76.8754L62.4683 49.5208L64.7184 48.1682Z" fill="url(#paint6_linear_1466_243)"/>
<path d="M62.4719 76.8772L53.8304 75.9023L53.832 52.7518C53.8343 51.1837 54.5319 49.9072 55.5736 49.2981C55.9434 49.0818 56.3566 48.9497 56.7975 48.9185C56.9618 48.9069 57.1299 48.9093 57.301 48.9266L62.4684 49.5226L62.4719 76.8772Z" fill="url(#paint7_linear_1466_243)"/>
<path d="M59.004 89.4559L53.8366 88.8599L53.8284 83.6767C53.8241 82.5157 54.388 81.5573 55.2506 81.0264C55.2681 81.0157 55.2856 81.0052 55.3033 80.9948C55.6778 80.7749 56.106 80.6343 56.5669 80.5906C56.7967 80.5688 57.0345 80.5711 57.2779 80.5997L62.4452 81.1957L62.4535 86.3788C62.4559 87.0349 62.2769 87.6263 61.9651 88.1123C61.7344 88.472 61.431 88.774 61.0746 89.0019C60.496 89.3719 59.7778 89.5467 59.004 89.4559Z" fill="url(#paint8_linear_1466_243)"/>
<defs>
<linearGradient id="paint0_linear_1466_243" x1="64.0001" y1="122.452" x2="64.0001" y2="6.08869" gradientUnits="userSpaceOnUse">
<stop stop-color="#DBE3ED"/>
<stop offset="1" stop-color="#DBE3ED" stop-opacity="0.2"/>
</linearGradient>
<linearGradient id="paint1_linear_1466_243" x1="41.3193" y1="34.1755" x2="135.556" y2="94.4301" gradientUnits="userSpaceOnUse">
<stop stop-color="white"/>
<stop offset="0.652604" stop-color="#DBE3ED"/>
<stop offset="0.896916" stop-color="white"/>
</linearGradient>
<linearGradient id="paint2_linear_1466_243" x1="67.4538" y1="2.53012" x2="131.028" y2="63.7708" gradientUnits="userSpaceOnUse">
<stop offset="0.076178" stop-color="#DBE3ED"/>
<stop offset="0.790014" stop-color="#8EA5BE"/>
<stop offset="1" stop-color="#DBE3ED"/>
</linearGradient>
<linearGradient id="paint3_linear_1466_243" x1="61.376" y1="77.6151" x2="66.2006" y2="88.3148" gradientUnits="userSpaceOnUse">
<stop stop-color="#0336FE"/>
<stop offset="1" stop-color="#428BF9"/>
</linearGradient>
<linearGradient id="paint4_linear_1466_243" x1="56.0343" y1="78.7407" x2="56.1376" y2="81.5094" gradientUnits="userSpaceOnUse">
<stop stop-color="#0336FE"/>
<stop offset="1" stop-color="#428BF9"/>
</linearGradient>
<linearGradient id="paint5_linear_1466_243" x1="56.3322" y1="47.079" x2="56.438" y2="49.8357" gradientUnits="userSpaceOnUse">
<stop stop-color="#0336FE"/>
<stop offset="1" stop-color="#428BF9"/>
</linearGradient>
<linearGradient id="paint6_linear_1466_243" x1="62.6551" y1="41.1847" x2="77.5177" y2="47.7153" gradientUnits="userSpaceOnUse">
<stop stop-color="#0336FE"/>
<stop offset="1" stop-color="#428BF9"/>
</linearGradient>
<linearGradient id="paint7_linear_1466_243" x1="55.1732" y1="16.7189" x2="86.5202" y2="29.0653" gradientUnits="userSpaceOnUse">
<stop stop-color="white"/>
<stop offset="1" stop-color="#428BF9"/>
</linearGradient>
<linearGradient id="paint8_linear_1466_243" x1="55.1732" y1="16.7189" x2="86.5202" y2="29.0653" gradientUnits="userSpaceOnUse">
<stop stop-color="white"/>
<stop offset="1" stop-color="#428BF9"/>
</linearGradient>
</defs>
</svg>
