<svg width="128" height="128" viewBox="0 0 128 128" fill="none" xmlns="http://www.w3.org/2000/svg">
<circle cx="63.9999" cy="64.0001" r="58.1818" fill="url(#paint0_linear_1466_2293)"/>
<path d="M92.8808 102.355L28.8906 94.1086C24.1826 93.5019 21.5527 88.356 23.8188 84.1849L55.7781 25.3596C56.3783 24.2548 57.2063 23.4113 58.1553 22.8263C58.1866 22.807 58.218 22.788 58.2495 22.7693C59.0267 22.308 59.8813 22.0172 60.7561 21.8954C63.4945 21.514 66.4309 22.7886 67.8085 25.6733L99.8394 92.7454C101 95.1749 100.574 97.7654 99.1895 99.6529C98.649 100.389 97.9624 101.019 97.1668 101.49C95.949 102.211 94.4759 102.561 92.8808 102.355Z" fill="url(#paint1_linear_1466_2293)"/>
<path d="M97.3707 101.364L101.53 98.868C101.644 98.8039 101.756 98.7367 101.866 98.6664C104.567 96.9358 105.912 93.3423 104.337 90.0454L72.3065 22.9733C70.4891 19.1678 65.959 18.1644 62.7492 20.0684C62.7297 20.08 62.7102 20.0917 62.6907 20.1035L58.25 22.7687C59.0271 22.3074 59.8817 22.0167 60.7565 21.8949C63.495 21.5135 66.4314 22.7881 67.809 25.6728L99.8399 92.7449C101 95.1744 100.575 97.7649 99.19 99.6524C98.6961 100.325 98.0802 100.909 97.3707 101.364Z" fill="url(#paint2_linear_1466_2293)"/>
<path d="M61.0762 88.502C61.4326 88.2741 61.736 87.972 61.9667 87.6124C62.2785 87.1263 62.4575 86.535 62.4551 85.8789L62.4468 80.6958L64.6969 79.3431L64.7052 84.5263C64.7094 85.6716 64.1607 86.6198 63.3177 87.1548C63.2774 87.1804 63.2364 87.2051 63.1947 87.2288L61.0762 88.502Z" fill="url(#paint3_linear_1466_2293)"/>
<path d="M62.4468 80.6928L57.2795 80.0967C57.0361 80.0682 56.7982 80.0659 56.5685 80.0877C56.1076 80.1314 55.6794 80.272 55.3049 80.4919L55.2522 80.5235C55.2696 80.5128 55.2872 80.5022 55.3049 80.4919L57.5023 79.1709C58.0732 78.8196 58.775 78.6555 59.5296 78.7441L64.6969 79.3401L62.4468 80.6928Z" fill="url(#paint4_linear_1466_2293)"/>
<path d="M57.3024 48.4246L62.4698 49.0206L64.7199 47.668L59.5525 47.072C58.8967 47.0057 58.2853 47.1581 57.7641 47.4801L55.575 48.7961C55.9448 48.5798 56.358 48.4477 56.7989 48.4165C56.9632 48.4049 57.1313 48.4073 57.3024 48.4246Z" fill="url(#paint5_linear_1466_2293)"/>
<path d="M64.7193 47.6682L64.7229 75.0228L62.4728 76.3754L62.4692 49.0208L64.7193 47.6682Z" fill="url(#paint6_linear_1466_2293)"/>
<path d="M62.4694 76.3772L53.8316 75.4023L53.8332 52.2518C53.8355 50.6837 54.5328 49.4072 55.574 48.7981C55.9437 48.5818 56.3568 48.4497 56.7974 48.4185C56.9616 48.4069 57.1297 48.4093 57.3007 48.4266L62.4658 49.0226L62.4694 76.3772Z" fill="url(#paint7_linear_1466_2293)"/>
<path d="M59.0029 88.9559L53.8379 88.3599L53.8296 83.1767C53.8254 82.0157 54.389 81.0573 55.2512 80.5264C55.2686 80.5157 55.2862 80.5052 55.3039 80.4948C55.6782 80.2749 56.1062 80.1343 56.5669 80.0906C56.7966 80.0688 57.0343 80.0711 57.2776 80.0997L62.4427 80.6957L62.4509 85.8788C62.4533 86.5349 62.2744 87.1263 61.9627 87.6123C61.7321 87.972 61.4289 88.274 61.0726 88.5019C60.4943 88.8719 59.7764 89.0467 59.0029 88.9559Z" fill="url(#paint8_linear_1466_2293)"/>
<defs>
<linearGradient id="paint0_linear_1466_2293" x1="63.9999" y1="121.952" x2="63.9999" y2="5.58869" gradientUnits="userSpaceOnUse">
<stop stop-color="#3F4757"/>
<stop offset="1" stop-color="#3F4757" stop-opacity="0.35"/>
</linearGradient>
<linearGradient id="paint1_linear_1466_2293" x1="34.4412" y1="14.9516" x2="141.817" y2="86.8895" gradientUnits="userSpaceOnUse">
<stop stop-color="#3F4757"/>
<stop offset="0.627327" stop-color="#7C8AA4"/>
</linearGradient>
<linearGradient id="paint2_linear_1466_2293" x1="71.5585" y1="-0.188276" x2="143.948" y2="77.2359" gradientUnits="userSpaceOnUse">
<stop offset="0.076178" stop-color="#7C8AA4"/>
<stop offset="0.671247" stop-color="#3F4757"/>
<stop offset="1" stop-color="#7C8AA4"/>
</linearGradient>
<linearGradient id="paint3_linear_1466_2293" x1="62.8907" y1="77.2458" x2="57.5577" y2="86.5061" gradientUnits="userSpaceOnUse">
<stop stop-color="#0336FE"/>
<stop offset="1" stop-color="#428BF9"/>
</linearGradient>
<linearGradient id="paint4_linear_1466_2293" x1="58.29" y1="78.9877" x2="58.7841" y2="81.5895" gradientUnits="userSpaceOnUse">
<stop stop-color="#0336FE"/>
<stop offset="1" stop-color="#428BF9"/>
</linearGradient>
<linearGradient id="paint5_linear_1466_2293" x1="58.5163" y1="47.3229" x2="58.946" y2="49.779" gradientUnits="userSpaceOnUse">
<stop stop-color="#0336FE"/>
<stop offset="1" stop-color="#428BF9"/>
</linearGradient>
<linearGradient id="paint6_linear_1466_2293" x1="63.5961" y1="42.9663" x2="52.0988" y2="47.0074" gradientUnits="userSpaceOnUse">
<stop stop-color="#0336FE"/>
<stop offset="1" stop-color="#428BF9"/>
</linearGradient>
<linearGradient id="paint7_linear_1466_2293" x1="55.3723" y1="48.4114" x2="88.683" y2="58.5625" gradientUnits="userSpaceOnUse">
<stop stop-color="#428BF9"/>
<stop offset="1" stop-color="white"/>
</linearGradient>
<linearGradient id="paint8_linear_1466_2293" x1="55.3723" y1="48.4114" x2="88.683" y2="58.5625" gradientUnits="userSpaceOnUse">
<stop stop-color="#428BF9"/>
<stop offset="1" stop-color="white"/>
</linearGradient>
</defs>
</svg>
