<svg width="128" height="128" viewBox="0 0 128 128" fill="none" xmlns="http://www.w3.org/2000/svg">
<circle cx="64.0001" cy="63.9999" r="58.1818" fill="url(#paint0_linear_1466_541)"/>
<path fill-rule="evenodd" clip-rule="evenodd" d="M64.0203 22.3687C39.5417 19.3621 19.708 34.2279 19.708 55.7531C19.708 65.039 23.5052 73.9448 29.4158 81.4214C31.5254 84.2114 31.5254 87.5905 29.4158 89.8635L23.0871 95.4168C23.0871 95.4168 62.7584 100.286 64.0241 100.442C88.5027 103.448 108.336 88.5788 108.336 66.6355C108.336 44.6921 88.4989 25.3715 64.0203 22.3687Z" fill="url(#paint1_linear_1466_541)"/>
<path d="M92.3412 94.9504L98.0936 91.4992C108.038 85.5689 114.385 75.4192 114.385 63.0058C114.385 41.0625 94.5479 21.7419 70.0693 18.7391C59.2155 17.4059 49.2749 19.5866 41.5715 24.3036L36.1691 27.5467C43.7784 23.0982 53.4679 21.0728 64.0206 22.3689C88.4992 25.3717 108.337 44.6923 108.337 66.6356C108.337 78.9253 102.115 88.9962 92.3412 94.9504Z" fill="url(#paint2_linear_1466_541)"/>
<path d="M55.4464 65.2961L47.4186 56.5813C44.9043 53.8321 41.1738 52.9054 38.1576 54.0114C37.7876 54.147 37.4283 54.3133 37.0834 54.5105C36.9994 54.5585 36.9162 54.6084 36.834 54.6601C36.503 54.8682 36.1866 55.106 35.8882 55.3741L34.3713 56.7334L55.5208 79.7403L84.5866 53.9622L83.1473 52.361C80.6193 49.53 76.8338 48.5689 73.7773 49.6922C73.3796 49.8383 72.9944 50.0197 72.6258 50.2369C72.2435 50.4621 71.8793 50.7257 71.5378 51.0283L55.4464 65.2961Z" fill="url(#paint3_linear_1466_541)"/>
<path d="M84.587 53.9614L55.5212 79.7395L57.8709 79.0139L86.9367 53.2358L84.587 53.9614Z" fill="url(#paint4_linear_1466_541)"/>
<path d="M76.1277 48.9656L74.5096 49.4653C77.4206 48.7302 80.8183 49.7511 83.148 52.36L84.5873 53.9612L86.937 53.2357L85.4977 51.6344C82.9697 48.8035 79.1842 47.8423 76.1277 48.9656Z" fill="url(#paint5_linear_1466_541)"/>
<path d="M57.1065 63.8225L49.7672 55.8551C47.2529 53.106 43.5224 52.1793 40.5061 53.2852L38.8761 53.7886C41.7486 53.0609 45.0998 54.0465 47.4175 56.5807L55.4453 65.2955L57.1065 63.8225Z" fill="url(#paint6_linear_1466_541)"/>
<defs>
<linearGradient id="paint0_linear_1466_541" x1="64.0001" y1="121.891" x2="64.0001" y2="5.52721" gradientUnits="userSpaceOnUse">
<stop stop-color="#DBE3ED"/>
<stop offset="1" stop-color="#DBE3ED" stop-opacity="0.2"/>
</linearGradient>
<linearGradient id="paint1_linear_1466_541" x1="101.685" y1="92.5215" x2="41.5219" y2="69.5647" gradientUnits="userSpaceOnUse">
<stop stop-color="#DBE3ED"/>
<stop offset="1" stop-color="#F8FAFB"/>
</linearGradient>
<linearGradient id="paint2_linear_1466_541" x1="92.123" y1="43.1034" x2="93.8122" y2="101.731" gradientUnits="userSpaceOnUse">
<stop stop-color="#B6C5D6"/>
<stop offset="1" stop-color="#8EA5BE"/>
</linearGradient>
<linearGradient id="paint3_linear_1466_541" x1="-5.73986" y1="87.5865" x2="77.9878" y2="88.7652" gradientUnits="userSpaceOnUse">
<stop stop-color="white"/>
<stop offset="1" stop-color="#428BF9"/>
</linearGradient>
<linearGradient id="paint4_linear_1466_541" x1="86.9365" y1="56.0616" x2="60.1588" y2="79.9436" gradientUnits="userSpaceOnUse">
<stop stop-color="#0336FE"/>
<stop offset="1" stop-color="#428BF9"/>
</linearGradient>
<linearGradient id="paint5_linear_1466_541" x1="86.9366" y1="47.3989" x2="72.2054" y2="53.1811" gradientUnits="userSpaceOnUse">
<stop stop-color="#0336FE"/>
<stop offset="1" stop-color="#428BF9"/>
</linearGradient>
<linearGradient id="paint6_linear_1466_541" x1="53.7407" y1="52.1244" x2="44.6724" y2="58.4839" gradientUnits="userSpaceOnUse">
<stop stop-color="#0336FE"/>
<stop offset="1" stop-color="#428BF9"/>
</linearGradient>
</defs>
</svg>
