<svg width="128" height="128" viewBox="0 0 128 128" fill="none" xmlns="http://www.w3.org/2000/svg">
<circle cx="63.9999" cy="64" r="58.1818" fill="url(#paint0_linear_1466_1664)"/>
<path d="M27.3661 76.7823L65.2785 102.779L63.0742 105.994L63.0674 105.989C63.0338 106.04 63.0049 106.095 62.9699 106.146C58.7895 112.242 46.9136 111.365 36.4444 104.186C25.9752 97.0073 20.877 86.2456 25.0575 80.149C25.0924 80.098 25.1325 80.0514 25.1685 80.0016L25.1617 79.997L27.3661 76.7823Z" fill="url(#paint1_linear_1466_1664)"/>
<path d="M38.7007 100.894C28.2315 93.7157 23.1334 82.954 27.3138 76.8575C31.4942 70.7609 43.37 71.6382 53.8392 78.817C64.3083 85.9957 69.4064 96.7574 65.226 102.854C61.0457 108.95 49.1699 108.073 38.7007 100.894Z" fill="url(#paint2_linear_1466_1664)"/>
<g style="mix-blend-mode:screen" opacity="0.8">
<path d="M28.9157 77.691L30.4902 75.3947C35.9834 67.3836 45.8126 63.3056 56.0508 64.7899L58.4123 65.1323C58.6399 65.1748 58.8749 65.152 59.0901 65.0666C59.3054 64.9813 59.4921 64.8368 59.6287 64.6499C59.7654 64.463 59.8464 64.2412 59.8625 64.0102C59.8785 63.7793 59.829 63.5484 59.7195 63.3444L57.8958 59.6555C53.575 50.915 54.1095 40.9492 59.3057 33.3712L63.8203 26.7874L98.7767 50.757L94.3804 57.1683C89.1189 64.8415 79.8575 68.9315 70.0284 67.9227L65.9115 67.5002C65.6794 67.4682 65.443 67.5033 65.2302 67.6013C65.0174 67.6993 64.837 67.856 64.7103 68.0531C64.5835 68.2502 64.5158 68.4794 64.515 68.7137C64.5143 68.948 64.5805 69.1776 64.7059 69.3755L65.9258 71.4893C71.1577 80.5544 70.9556 91.3302 65.402 99.4295L63.9594 101.533C62.4679 104.296 58.9681 105.761 53.913 105.196C44.5374 104.15 33.4284 96.5595 29.1003 88.2433C26.7876 83.7996 26.8988 80.0619 28.9157 77.691Z" fill="url(#paint3_linear_1466_1664)"/>
</g>
<path d="M56.4734 48.5509C56.6963 52.2147 57.6931 55.7896 59.398 59.0402L61.2211 62.7287C61.7046 63.7055 61.8911 65.0655 61.2849 65.8941C60.8897 66.4342 59.5429 68.2028 56.9657 71.1934C55.3859 73.0266 52.1013 73.2306 49.6096 72.5006C42.5979 70.4465 36.2603 70.017 31.9067 76.366L30.2891 78.7251L30.2399 78.783C28.5677 80.7488 28.6938 83.9604 30.585 87.5953C32.5348 91.3407 36.0391 95.0705 40.4531 98.0972L40.454 98.0979C44.9128 101.154 49.7167 103.1 53.9809 103.577C58.13 104.04 61.2208 102.989 62.4597 100.693L62.4971 100.625L63.9833 98.4573C68.4051 92.0086 65.651 86.1696 61.0913 80.2745C59.5012 78.2187 58.5711 75.1388 59.6985 72.9951C61.5383 69.4968 62.4978 67.4758 62.8644 66.905C63.4274 66.0305 64.8643 65.7656 65.9636 65.8779L70.0811 66.3016C73.4136 66.7266 76.7966 66.5141 80.0497 65.6753L56.4734 48.5509Z" fill="url(#paint4_linear_1466_1664)"/>
<path d="M65.4104 61.7011C58.3067 56.8301 54.6717 49.7843 57.2914 45.9638C59.9111 42.1433 67.7935 42.9949 74.8971 47.8659C82.0008 52.7369 85.6358 59.7827 83.0161 63.6032C80.3964 67.4237 72.5141 66.5721 65.4104 61.7011Z" fill="url(#paint5_linear_1466_1664)"/>
<path d="M65.0831 21.7755L102.996 47.772L100.791 50.9867L100.784 50.982C100.751 51.0336 100.722 51.0877 100.687 51.1388C96.5065 57.2353 84.6306 56.3579 74.1614 49.1792C63.6923 42.0005 58.5941 31.2388 62.7745 25.1422C62.8095 25.0912 62.8495 25.0446 62.8855 24.9948L62.8788 24.9901L65.0831 21.7755Z" fill="url(#paint6_linear_1466_1664)"/>
<path d="M76.418 45.8898C65.9488 38.7111 60.8507 27.9494 65.0311 21.8529C69.2115 15.7564 81.0873 16.6337 91.5564 23.8124C102.026 30.9911 107.124 41.7528 102.943 47.8493C98.763 53.9458 86.8871 53.0685 76.418 45.8898Z" fill="url(#paint7_linear_1466_1664)"/>
<defs>
<linearGradient id="paint0_linear_1466_1664" x1="63.9999" y1="122.286" x2="63.9999" y2="3.88637" gradientUnits="userSpaceOnUse">
<stop stop-color="#3F4757"/>
<stop offset="1" stop-color="#3F4757" stop-opacity="0.35"/>
</linearGradient>
<linearGradient id="paint1_linear_1466_1664" x1="55.5171" y1="106.131" x2="26.8421" y2="117.453" gradientUnits="userSpaceOnUse">
<stop stop-color="#3F4757"/>
<stop offset="1" stop-color="#7C8AA4"/>
</linearGradient>
<linearGradient id="paint2_linear_1466_1664" x1="62.9467" y1="88.2394" x2="25.7129" y2="108.272" gradientUnits="userSpaceOnUse">
<stop stop-color="#7C8AA4"/>
<stop offset="0.821293" stop-color="#3F4757"/>
</linearGradient>
<linearGradient id="paint3_linear_1466_1664" x1="20.445" y1="51.349" x2="78.2645" y2="106.516" gradientUnits="userSpaceOnUse">
<stop stop-color="#7C8AA4"/>
<stop offset="1" stop-opacity="0"/>
</linearGradient>
<linearGradient id="paint4_linear_1466_1664" x1="45.4673" y1="56.0215" x2="47.292" y2="110.03" gradientUnits="userSpaceOnUse">
<stop stop-color="#0336FE"/>
<stop offset="1" stop-color="#428BF9"/>
</linearGradient>
<linearGradient id="paint5_linear_1466_1664" x1="102.121" y1="87.9385" x2="57.8544" y2="52.9987" gradientUnits="userSpaceOnUse">
<stop stop-color="white"/>
<stop offset="1" stop-color="#428BF9"/>
</linearGradient>
<linearGradient id="paint6_linear_1466_1664" x1="89.8444" y1="44.1661" x2="54.5442" y2="58.0758" gradientUnits="userSpaceOnUse">
<stop stop-color="#3F4757"/>
<stop offset="1" stop-color="#7C8AA4"/>
</linearGradient>
<linearGradient id="paint7_linear_1466_1664" x1="122.525" y1="15.6825" x2="63.2949" y2="64.8562" gradientUnits="userSpaceOnUse">
<stop stop-color="#7C8AA4"/>
<stop offset="0.784887" stop-color="#3F4757"/>
</linearGradient>
</defs>
</svg>
