<svg width="128" height="128" viewBox="0 0 128 128" fill="none" xmlns="http://www.w3.org/2000/svg">
<circle cx="64.0001" cy="64" r="58.1818" fill="url(#paint0_linear_1466_166)"/>
<path d="M38.6997 101.292C28.2305 94.1134 23.1325 83.3517 27.3128 77.2552C31.4932 71.1587 43.369 72.036 53.8382 79.2147C64.3074 86.3934 69.4054 97.1551 65.2251 103.252C61.0447 109.348 49.1689 108.471 38.6997 101.292Z" fill="url(#paint1_linear_1466_166)"/>
<path d="M27.3127 77.2556C23.1323 83.3521 28.2304 94.1138 38.6996 101.292C49.1687 108.471 61.0446 109.349 65.2249 103.252C65.2423 103.227 65.2596 103.201 65.2766 103.176L65.2773 103.176L63.0729 106.391L63.0662 106.386C63.0514 106.409 63.0376 106.432 63.0237 106.455C63.006 106.485 62.9883 106.514 62.9687 106.543C58.7883 112.639 46.9124 111.762 36.4431 104.583C25.974 97.4046 20.8758 86.6429 25.0562 80.5463C25.076 80.5175 25.0973 80.4901 25.1187 80.4628C25.1351 80.4417 25.1516 80.4206 25.1672 80.3988L25.1605 80.3942L27.3127 77.2556Z" fill="url(#paint2_linear_1466_166)"/>
<path d="M27.3127 77.2556L27.3648 77.1795C27.3472 77.2047 27.3301 77.2302 27.3127 77.2556Z" fill="url(#paint3_linear_1466_166)"/>
<path opacity="0.5" d="M28.9142 78.0877L30.4888 75.7914C35.982 67.7803 45.8111 63.7023 56.0493 65.1866L58.4109 65.529C58.6385 65.5715 58.8734 65.5487 59.0887 65.4633C59.3039 65.378 59.4906 65.2335 59.6273 65.0466C59.7639 64.8597 59.8449 64.6379 59.861 64.407C59.877 64.176 59.8275 63.9452 59.718 63.7411L57.8944 60.0522C53.5735 51.3117 54.108 41.3459 59.3043 33.7679L63.8188 27.1841L98.7752 51.1537L94.379 57.565C89.1175 65.2382 79.8561 69.3282 70.0269 68.3194L65.9101 67.8969C65.678 67.8649 65.4416 67.9 65.2287 67.998C65.0159 68.096 64.8355 68.2527 64.7088 68.4498C64.5821 68.6469 64.5143 68.8761 64.5136 69.1104C64.5128 69.3447 64.579 69.5743 64.7044 69.7723L65.9244 71.8861C71.1562 80.9511 70.9542 91.7269 65.4005 99.8262L63.958 101.93C62.4664 104.692 58.9667 106.158 53.9115 105.593C44.536 104.546 33.4269 96.9562 29.0988 88.64C26.7861 84.1963 26.8973 80.4586 28.9142 78.0877Z" fill="url(#paint4_linear_1466_166)"/>
<path d="M56.4726 48.9477C56.6956 52.6115 57.6923 56.1864 59.3972 59.437L61.2204 63.1255C61.7038 64.1023 61.8904 65.4623 61.2841 66.2909C60.889 66.831 59.5422 68.5996 56.965 71.5902C55.3852 73.4234 52.1006 73.6274 49.6089 72.8974C42.5972 70.8433 36.2595 70.4138 31.906 76.7628L30.2883 79.1219L30.2392 79.1798C28.5669 81.1456 28.693 84.3572 30.5842 87.9921C32.534 91.7375 36.0384 95.4673 40.4524 98.494L40.4533 98.4947C44.9121 101.551 49.7159 103.497 53.9802 103.973C58.1292 104.436 61.2201 103.385 62.459 101.09L62.4964 101.022L63.9825 98.8541C68.4044 92.4054 65.6503 86.5664 61.0906 80.6713C59.5005 78.6155 58.5704 75.5356 59.6977 73.3919C61.5375 69.8936 62.4971 67.8725 62.8637 67.3018C63.4267 66.4273 64.8635 66.1624 65.9629 66.2747L70.0804 66.6984C73.4129 67.1234 76.7958 66.9108 80.0489 66.0721L56.4726 48.9477Z" fill="url(#paint5_linear_1466_166)"/>
<path d="M65.4098 62.0975C58.3061 57.2265 54.6711 50.1806 57.2908 46.3602C59.9105 42.5397 67.7929 43.3913 74.8965 48.2623C82.0002 53.1333 85.6352 60.1791 83.0155 63.9996C80.3958 67.8201 72.5134 66.9684 65.4098 62.0975Z" fill="url(#paint6_linear_1466_166)"/>
<path d="M76.4172 46.2853C65.9481 39.1066 60.85 28.3449 65.0304 22.2484C69.2107 16.1519 81.0865 17.0292 91.5557 24.2079C102.025 31.3866 107.123 42.1483 102.943 48.2448C98.7622 54.3413 86.8864 53.464 76.4172 46.2853Z" fill="url(#paint7_linear_1466_166)"/>
<path d="M65.0306 22.2488C60.8502 28.3453 65.9483 39.107 76.4175 46.2857C86.8866 53.4644 98.7625 54.3417 102.943 48.2452C102.96 48.2198 102.977 48.1944 102.995 48.1688L102.995 48.1693L100.791 51.384L100.784 51.3793C100.769 51.402 100.755 51.4251 100.742 51.4483C100.724 51.4779 100.706 51.5074 100.687 51.536C96.5062 57.6326 84.6302 56.7552 74.161 49.5765C63.6919 42.3978 58.5937 31.6361 62.7741 25.5395C62.7939 25.5107 62.8152 25.4833 62.8366 25.456C62.853 25.4348 62.8695 25.4137 62.8851 25.392L62.8784 25.3874L65.0306 22.2488Z" fill="url(#paint8_linear_1466_166)"/>
<path d="M65.0306 22.2488L65.0827 22.1727C65.0651 22.1979 65.048 22.2234 65.0306 22.2488Z" fill="url(#paint9_linear_1466_166)"/>
<defs>
<linearGradient id="paint0_linear_1466_166" x1="64.0001" y1="122.286" x2="64.0001" y2="5.92273" gradientUnits="userSpaceOnUse">
<stop stop-color="#DBE3ED"/>
<stop offset="1" stop-color="#DBE3ED" stop-opacity="0.2"/>
</linearGradient>
<linearGradient id="paint1_linear_1466_166" x1="27.3552" y1="71.1845" x2="47.3723" y2="104.187" gradientUnits="userSpaceOnUse">
<stop stop-color="#8EA5BE"/>
<stop offset="1" stop-color="#DBE3ED"/>
</linearGradient>
<linearGradient id="paint2_linear_1466_166" x1="73.1889" y1="108.72" x2="19.7662" y2="87.7627" gradientUnits="userSpaceOnUse">
<stop offset="0.181227" stop-color="white"/>
<stop offset="0.292358" stop-color="#DBE3ED"/>
<stop offset="0.752447" stop-color="white"/>
</linearGradient>
<linearGradient id="paint3_linear_1466_166" x1="73.1889" y1="108.72" x2="19.7662" y2="87.7627" gradientUnits="userSpaceOnUse">
<stop offset="0.181227" stop-color="white"/>
<stop offset="0.292358" stop-color="#DBE3ED"/>
<stop offset="0.752447" stop-color="white"/>
</linearGradient>
<linearGradient id="paint4_linear_1466_166" x1="44.8848" y1="90.5846" x2="81.1641" y2="87.369" gradientUnits="userSpaceOnUse">
<stop stop-color="white"/>
<stop offset="0.627988" stop-color="white" stop-opacity="0.56"/>
</linearGradient>
<linearGradient id="paint5_linear_1466_166" x1="57.0682" y1="77.7779" x2="24.1955" y2="146.142" gradientUnits="userSpaceOnUse">
<stop stop-color="#428BF9"/>
<stop offset="1" stop-color="white"/>
</linearGradient>
<linearGradient id="paint6_linear_1466_166" x1="82.8624" y1="58.5283" x2="46.7897" y2="55.0373" gradientUnits="userSpaceOnUse">
<stop stop-color="white"/>
<stop offset="1" stop-color="#428BF9"/>
</linearGradient>
<linearGradient id="paint7_linear_1466_166" x1="52.9692" y1="25.8646" x2="121.361" y2="54.3238" gradientUnits="userSpaceOnUse">
<stop stop-color="#8EA5BE"/>
<stop offset="0.527253" stop-color="#DBE3ED"/>
</linearGradient>
<linearGradient id="paint8_linear_1466_166" x1="100.414" y1="50.4315" x2="60.8412" y2="26.2478" gradientUnits="userSpaceOnUse">
<stop stop-color="white"/>
<stop offset="0.225036" stop-color="#DBE3ED"/>
<stop offset="1" stop-color="white"/>
</linearGradient>
<linearGradient id="paint9_linear_1466_166" x1="100.414" y1="50.4315" x2="60.8412" y2="26.2478" gradientUnits="userSpaceOnUse">
<stop stop-color="white"/>
<stop offset="0.225036" stop-color="#DBE3ED"/>
<stop offset="1" stop-color="white"/>
</linearGradient>
</defs>
</svg>
